<svg xmlns="http://www.w3.org/2000/svg" viewBox="0 0 79.82 106.43"><defs><style>.cls-1,.cls-2{fill:#010101;}.cls-1{fill-rule:evenodd;}</style></defs><g id="Layer_2" data-name="Layer 2"><g id="Layer_1-2" data-name="Layer 1"><path class="cls-1" d="M39.9,47.31A16.62,16.62,0,1,0,55,57a1.66,1.66,0,0,1,3-1.38A19.92,19.92,0,1,1,39.9,44Z"/><path class="cls-2" d="M39.9,52.18V39.12a.83.83,0,0,1,.83-.83.78.78,0,0,1,.53.2L49.1,45a.82.82,0,0,1,0,1.27l-7.84,6.53a.82.82,0,0,1-1.16-.11.78.78,0,0,1-.2-.53"/><path class="cls-2" d="M79.82,29.93V93.12a13.31,13.31,0,0,1-13.3,13.31H13.3A13.31,13.31,0,0,1,0,93.12V13.3A13.31,13.31,0,0,1,13.3,0H49.89Zm-20,0a10,10,0,0,1-10-10V6.65H13.3A6.65,6.65,0,0,0,6.65,13.3V93.12a6.65,6.65,0,0,0,6.65,6.65H66.52a6.65,6.65,0,0,0,6.65-6.65V29.93Z"/></g></g></svg>