<svg xmlns="http://www.w3.org/2000/svg" viewBox="0 0 124.69 166.25"><defs><style>.cls-1,.cls-2{fill:#010101;}.cls-2{fill-rule:evenodd;}</style></defs><g id="Layer_2" data-name="Layer 2"><g id="Layer_1-2" data-name="Layer 1"><path class="cls-1" d="M103.91,0H20.78A20.78,20.78,0,0,0,0,20.78V145.47a20.78,20.78,0,0,0,20.78,20.78h83.13a20.78,20.78,0,0,0,20.78-20.78V20.78A20.78,20.78,0,0,0,103.91,0M10.39,20.78A10.39,10.39,0,0,1,20.78,10.39h83.13A10.39,10.39,0,0,1,114.3,20.78v83.13L92.65,82.26a5.19,5.19,0,0,0-7.34,0,4.85,4.85,0,0,0-.55.65L62.34,114.3,39.85,100.79a5.19,5.19,0,0,0-6.35.79L10.39,124.69Z"/><path class="cls-2" d="M61.24,54.58a15.64,15.64,0,1,0,14.22,9.11,1.56,1.56,0,0,1,2.84-1.3A18.77,18.77,0,1,1,61.24,51.45Z"/><path class="cls-1" d="M61.24,59.16V46.86a.78.78,0,0,1,.78-.78.77.77,0,0,1,.5.18l7.38,6.15a.77.77,0,0,1,0,1.2l-7.38,6.15a.77.77,0,0,1-1.1-.1.75.75,0,0,1-.18-.5"/></g></g></svg>